<?xml version="1.0" ?>
<svg xmlns="http://www.w3.org/2000/svg" width="100%" height="100%" viewBox="0 0 1000 1200">
	<g id="teeth">
		<circle cx="50" cy="100" r="30" data-tooth="1" id="tooth1" fill="#cccccc" stroke="#333" stroke-width="2"/>
		<circle cx="125" cy="100" r="30" data-tooth="2" id="tooth2" fill="#cccccc" stroke="#333" stroke-width="2"/>
		<circle cx="200" cy="100" r="30" data-tooth="3" id="tooth3" fill="#cccccc" stroke="#333" stroke-width="2"/>
		<circle cx="275" cy="100" r="30" data-tooth="4" id="tooth4" fill="#cccccc" stroke="#333" stroke-width="2"/>
		<circle cx="350" cy="100" r="30" data-tooth="5" id="tooth5" fill="#cccccc" stroke="#333" stroke-width="2"/>
		<circle cx="425" cy="100" r="30" data-tooth="6" id="tooth6" fill="#cccccc" stroke="#333" stroke-width="2"/>
		<circle cx="500" cy="100" r="30" data-tooth="7" id="tooth7" fill="#cccccc" stroke="#333" stroke-width="2"/>
		<circle cx="575" cy="100" r="30" data-tooth="8" id="tooth8" fill="#cccccc" stroke="#333" stroke-width="2"/>
		<circle cx="650" cy="100" r="30" data-tooth="9" id="tooth9" fill="#cccccc" stroke="#333" stroke-width="2"/>
		<circle cx="725" cy="100" r="30" data-tooth="10" id="tooth10" fill="#cccccc" stroke="#333" stroke-width="2"/>
		<circle cx="800" cy="100" r="30" data-tooth="11" id="tooth11" fill="#cccccc" stroke="#333" stroke-width="2"/>
		<circle cx="875" cy="100" r="30" data-tooth="12" id="tooth12" fill="#cccccc" stroke="#333" stroke-width="2"/>
		<circle cx="950" cy="100" r="30" data-tooth="13" id="tooth13" fill="#cccccc" stroke="#333" stroke-width="2"/>
		<circle cx="1025" cy="100" r="30" data-tooth="14" id="tooth14" fill="#cccccc" stroke="#333" stroke-width="2"/>
		<circle cx="1100" cy="100" r="30" data-tooth="15" id="tooth15" fill="#cccccc" stroke="#333" stroke-width="2"/>
		<circle cx="1175" cy="100" r="30" data-tooth="16" id="tooth16" fill="#cccccc" stroke="#333" stroke-width="2"/>
		<circle cx="50" cy="300" r="30" data-tooth="17" id="tooth17" fill="#cccccc" stroke="#333" stroke-width="2"/>
		<circle cx="125" cy="300" r="30" data-tooth="18" id="tooth18" fill="#cccccc" stroke="#333" stroke-width="2"/>
		<circle cx="200" cy="300" r="30" data-tooth="19" id="tooth19" fill="#cccccc" stroke="#333" stroke-width="2"/>
		<circle cx="275" cy="300" r="30" data-tooth="20" id="tooth20" fill="#cccccc" stroke="#333" stroke-width="2"/>
		<circle cx="350" cy="300" r="30" data-tooth="21" id="tooth21" fill="#cccccc" stroke="#333" stroke-width="2"/>
		<circle cx="425" cy="300" r="30" data-tooth="22" id="tooth22" fill="#cccccc" stroke="#333" stroke-width="2"/>
		<circle cx="500" cy="300" r="30" data-tooth="23" id="tooth23" fill="#cccccc" stroke="#333" stroke-width="2"/>
		<circle cx="575" cy="300" r="30" data-tooth="24" id="tooth24" fill="#cccccc" stroke="#333" stroke-width="2"/>
		<circle cx="650" cy="300" r="30" data-tooth="25" id="tooth25" fill="#cccccc" stroke="#333" stroke-width="2"/>
		<circle cx="725" cy="300" r="30" data-tooth="26" id="tooth26" fill="#cccccc" stroke="#333" stroke-width="2"/>
		<circle cx="800" cy="300" r="30" data-tooth="27" id="tooth27" fill="#cccccc" stroke="#333" stroke-width="2"/>
		<circle cx="875" cy="300" r="30" data-tooth="28" id="tooth28" fill="#cccccc" stroke="#333" stroke-width="2"/>
		<circle cx="950" cy="300" r="30" data-tooth="29" id="tooth29" fill="#cccccc" stroke="#333" stroke-width="2"/>
		<circle cx="1025" cy="300" r="30" data-tooth="30" id="tooth30" fill="#cccccc" stroke="#333" stroke-width="2"/>
		<circle cx="1100" cy="300" r="30" data-tooth="31" id="tooth31" fill="#cccccc" stroke="#333" stroke-width="2"/>
		<circle cx="1175" cy="300" r="30" data-tooth="32" id="tooth32" fill="#cccccc" stroke="#333" stroke-width="2"/>
	</g>
</svg>
